# xmcd CD database file
#
# Track frame offsets:
#	150
#	15770
#	34152
#	52684
#	73986
#	93331
#	103665
#	118706
#	137693
#	153611
#	168631
#	192741
#	210025
#	230555
#	245762
#
# Disc length: 3481 seconds
#
# Revision: 0
# Processed by: cddbd v1.5.1PL2 Copyright (c) Steve Scherf et al.
# Submitted via: CDex 1.51
#
DISCID=cb0d970f
DTITLE=Boy - Every Page You Turn
DYEAR=2005
DGENRE=Alternative and Punk
TTITLE0=People Come On
TTITLE1=Same Old Song
TTITLE2=Every Page You Turn
TTITLE3=You Gave It All
TTITLE4=A Line To Stand Behind
TTITLE5=The New Number 2
TTITLE6=Up In This Town
TTITLE7=Black Cat
TTITLE8=Diamonds
TTITLE9=The Shells
TTITLE10=Stars
TTITLE11=Same Old Song (Live - The Orange Lounge, Tronto 8/6/2005)
TTITLE12=Every Page You Turn (Live - The Orange Lounge, Tronto 8/6/2005)
TTITLE13=Up In This Town (Live - The Orange Lounge, Tronto 8/6/2005)
TTITLE14=Diamonds (Live - The Orange Lounge, Tronto 8/6/2005)
EXTD=YEAR: 2005
EXTT0=
EXTT1=
EXTT2=
EXTT3=
EXTT4=
EXTT5=
EXTT6=
EXTT7=
EXTT8=
EXTT9=
EXTT10=
EXTT11=
EXTT12=
EXTT13=
EXTT14=
PLAYORDER=
